# Blender 3.1.0
# www.blender.org
o Icosphere
v -0.006076 -3.806535 -0.043114
v -5.148506 -1.718804 -2.028663
v 1.033128 -1.106236 -3.477880
v 7.163129 -2.026187 -0.164925
v 1.958120 -1.718806 3.169602
v -6.179564 -2.026204 2.139015
v -1.970271 1.659298 -3.255830
v 5.754516 1.893588 -2.468865
v 5.754516 1.893588 2.139015
v -1.970271 1.659298 3.169602
v -5.395288 1.347269 -0.114897
v -0.006076 3.747027 -0.043114
v 0.812365 -2.260613 -1.328737
v -3.028699 -3.242489 -1.210182
v -1.874195 -2.015350 -3.098574
v -6.051341 -2.015343 -0.043114
v -4.355575 -4.163363 1.217718
v 3.730107 -3.242479 -0.043114
v 3.441318 -1.397143 -1.328741
v 1.148441 -3.242490 1.845259
v 5.462450 -2.370296 2.026263
v -1.874195 -2.015350 3.012346
v -4.755801 -0.000000 -0.821201
v -8.055175 -0.066308 1.189293
v -0.006076 -0.029754 -3.819895
v -4.183268 -0.029754 -3.098593
v 7.630127 -0.066308 -1.519143
v 4.634497 -0.066308 -3.710362
v 5.929970 -0.181795 4.016243
v 8.412029 -0.170602 1.021750
v -6.955868 -0.229742 3.921827
v -0.900827 -0.129282 4.628829
v -4.896803 1.955837 -1.931493
v 2.048403 2.412981 -4.472451
v 6.802123 2.237679 -0.164925
v 1.581290 2.484938 2.544411
v -5.887500 2.237680 2.026263
v -0.752572 2.770691 -1.689308
v -3.742258 3.182971 -0.043114
v 3.016548 3.182981 -1.210182
v 2.843714 3.488733 1.217718
v -1.160592 3.182982 1.845259
vn 0.1512 -0.6781 -0.7192
vn -0.4622 -0.8219 -0.3329
vn 0.1007 -0.6671 -0.7381
vn 0.1463 -0.9688 0.2000
vn 0.1388 -0.9690 0.2046
vn -0.8479 0.4205 -0.3228
vn -0.0226 -0.3225 -0.9463
vn 0.1500 -0.5860 -0.7963
vn 0.1094 -0.6814 0.7237
vn -0.1348 -0.7267 0.6736
vn -0.9005 0.3682 -0.2312
vn 0.0204 -0.2848 -0.9584
vn 0.8697 -0.4036 -0.2842
vn 0.0663 -0.6074 0.7916
vn -0.7576 -0.5946 0.2692
vn -0.1391 0.8555 -0.4988
vn 0.2898 0.9087 -0.3005
vn 0.3820 0.8727 0.3040
vn -0.0222 0.6626 0.7487
vn -0.6693 0.6188 -0.4112
vn -0.1463 0.9688 0.2000
vn -0.1809 0.9519 0.2473
vn -0.1093 0.6845 0.7207
vn -0.0315 0.9628 0.2684
vn 0.0386 0.7788 0.6260
vn 0.1668 0.7034 0.6909
vn 0.1396 0.9836 -0.1139
vn 0.2673 0.9582 -0.1016
vn 0.3036 0.9125 -0.2743
vn -0.0312 0.8658 -0.4994
vn -0.0804 0.9752 -0.2063
vn -0.2841 0.8723 -0.3980
vn -0.1325 0.8777 -0.4605
vn -0.1427 0.8675 -0.4765
vn -0.7434 0.6686 0.0200
vn -0.5782 0.6977 -0.4230
vn -0.7440 0.5787 0.3339
vn -0.1273 0.6383 0.7592
vn -0.0093 0.6288 0.7775
vn 0.0774 0.5756 0.8141
vn 0.1652 0.6692 0.7244
vn 0.6613 0.6371 0.3959
vn 0.8575 0.4523 -0.2453
vn 0.7490 0.5145 -0.4174
vn 0.4873 0.2513 -0.8363
vn 0.0205 -0.2741 -0.9615
vn -0.2873 -0.0142 -0.9577
vn -0.3496 0.3782 -0.8572
vn -0.9503 -0.2026 -0.2363
vn -0.9072 -0.2553 -0.3345
vn -0.1032 0.5910 0.8000
vn -0.0804 -0.6244 0.7769
vn 0.0199 -0.6565 0.7540
vn 0.6464 0.5411 0.5378
vn 0.6189 -0.5967 0.5108
vn 0.6324 -0.6720 0.3853
vn 0.5817 0.1713 -0.7952
vn 0.2668 -0.8920 -0.3648
vn 0.2334 -0.8939 -0.3826
vn -0.1687 0.1301 -0.9770
vn -0.1669 -0.1941 -0.9667
vn -0.3186 -0.3706 -0.8724
vn -0.5133 0.1946 -0.8359
vn -0.5204 0.0049 -0.8539
vn -0.7107 -0.7021 -0.0453
vn -0.1699 -0.5088 0.8439
vn 0.0241 -0.6572 0.7533
vn 0.0205 -0.6621 0.7492
vn 0.1081 -0.6843 0.7212
vn 0.1819 -0.9513 0.2487
vn 0.3354 -0.9352 0.1134
vn 0.1644 -0.5464 -0.8212
vn 0.1785 -0.5435 -0.8202
vn 0.2815 -0.8571 -0.4315
vn -0.7700 -0.6363 -0.0484
vn -0.4866 -0.6949 -0.5295
vn -0.0308 -0.9289 -0.3691
vn 0.2138 -0.8696 -0.4451
vn 0.2097 -0.8735 -0.4394
vn -0.2732 -0.7217 -0.6360
vt 0.181819 0.000000
vt 0.909091 0.000000
vt 0.727273 0.000000
vt 0.545455 0.000000
vt 0.363637 0.000000
vt 0.272728 0.157461
vt 1.000000 0.157461
vt 0.090910 0.157461
vt 0.818182 0.157461
vt 0.636364 0.157461
vt 0.454546 0.157461
vt 0.181819 0.314921
vt 0.000000 0.314921
vt 0.909091 0.314921
vt 0.727273 0.314921
vt 0.545455 0.314921
vt 0.363637 0.314921
vt 0.454546 0.472382
vt 0.636364 0.472382
vt 0.818182 0.472382
vt 0.090910 0.472382
vt 0.272728 0.472382
vt 0.954545 0.078731
vt 0.136365 0.078731
vt 0.318182 0.078731
vt 0.227273 0.078731
vt 0.181819 0.157461
vt 0.363637 0.157461
vt 0.500000 0.078731
vt 0.409092 0.078731
vt 0.772727 0.078731
vt 0.863636 0.078731
vt 0.909091 0.157461
vt 0.590909 0.078731
vt 0.681818 0.078731
vt 0.727273 0.157461
vt 0.545455 0.157461
vt 0.318182 0.236191
vt 0.409092 0.236191
vt 0.136365 0.236191
vt 0.227273 0.236191
vt 0.863636 0.236191
vt 0.045455 0.236191
vt 0.954545 0.236191
vt 0.681818 0.236191
vt 0.772727 0.236191
vt 0.500000 0.236191
vt 0.590909 0.236191
vt 0.272728 0.314921
vt 0.090910 0.314921
vt 0.818182 0.314921
vt 0.636364 0.314921
vt 0.454546 0.314921
vt 0.136365 0.393651
vt 0.227273 0.393651
vt 0.409092 0.393651
vt 0.318182 0.393651
vt 0.863636 0.393651
vt 0.045455 0.393651
vt 0.681818 0.393651
vt 0.772727 0.393651
vt 0.500000 0.393651
vt 0.590909 0.393651
s 0
f 1/1/1 14/26/1 13/24/1
f 2/6/2 14/25/2 16/28/2
f 1/2/3 13/23/3 18/32/3
f 1/3/4 18/31/4 20/35/4
f 1/4/5 20/34/5 17/29/5
f 2/6/6 16/28/6 23/38/6
f 3/8/7 15/27/7 25/40/7
f 4/9/8 19/33/8 27/42/8
f 5/10/9 21/36/9 29/45/9
f 6/11/10 22/37/10 31/47/10
f 2/6/11 23/38/11 26/41/11
f 3/8/12 25/40/12 28/43/12
f 4/9/13 27/42/13 30/46/13
f 5/10/14 29/45/14 32/48/14
f 6/11/15 31/47/15 24/39/15
f 7/12/16 33/49/16 38/55/16
f 8/13/17 34/50/17 40/59/17
f 9/15/18 35/51/18 41/61/18
f 10/16/19 36/52/19 42/63/19
f 11/17/20 37/53/20 39/56/20
f 39/56/21 42/62/21 12/18/21
f 39/56/22 37/53/22 42/62/22
f 37/53/23 10/16/23 42/62/23
f 42/63/24 41/60/24 12/19/24
f 42/63/25 36/52/25 41/60/25
f 36/52/26 9/15/26 41/60/26
f 41/61/27 40/58/27 12/20/27
f 41/61/28 35/51/28 40/58/28
f 35/51/29 8/14/29 40/58/29
f 40/59/30 38/54/30 12/21/30
f 40/59/31 34/50/31 38/54/31
f 34/50/32 7/12/32 38/54/32
f 38/55/33 39/57/33 12/22/33
f 38/55/34 33/49/34 39/57/34
f 33/49/35 11/17/35 39/57/35
f 24/39/36 37/53/36 11/17/36
f 24/39/37 31/47/37 37/53/37
f 31/47/38 10/16/38 37/53/38
f 32/48/39 36/52/39 10/16/39
f 32/48/40 29/45/40 36/52/40
f 29/45/41 9/15/41 36/52/41
f 30/46/42 35/51/42 9/15/42
f 30/46/43 27/42/43 35/51/43
f 27/42/44 8/14/44 35/51/44
f 28/43/45 34/50/45 8/13/45
f 28/43/46 25/40/46 34/50/46
f 25/40/47 7/12/47 34/50/47
f 26/41/48 33/49/48 7/12/48
f 26/41/49 23/38/49 33/49/49
f 23/38/50 11/17/50 33/49/50
f 31/47/51 32/48/51 10/16/51
f 31/47/52 22/37/52 32/48/52
f 22/37/53 5/10/53 32/48/53
f 29/45/54 30/46/54 9/15/54
f 29/45/55 21/36/55 30/46/55
f 21/36/56 4/9/56 30/46/56
f 27/42/57 28/44/57 8/14/57
f 27/42/58 19/33/58 28/44/58
f 19/33/59 3/7/59 28/44/59
f 25/40/60 26/41/60 7/12/60
f 25/40/61 15/27/61 26/41/61
f 15/27/62 2/6/62 26/41/62
f 23/38/63 24/39/63 11/17/63
f 23/38/64 16/28/64 24/39/64
f 16/28/65 6/11/65 24/39/65
f 17/29/66 22/37/66 6/11/66
f 17/29/67 20/34/67 22/37/67
f 20/34/68 5/10/68 22/37/68
f 20/35/69 21/36/69 5/10/69
f 20/35/70 18/31/70 21/36/70
f 18/31/71 4/9/71 21/36/71
f 18/32/72 19/33/72 4/9/72
f 18/32/73 13/23/73 19/33/73
f 13/23/74 3/7/74 19/33/74
f 16/28/75 17/30/75 6/11/75
f 16/28/76 14/25/76 17/30/76
f 14/25/77 1/5/77 17/30/77
f 13/24/78 15/27/78 3/8/78
f 13/24/79 14/26/79 15/27/79
f 14/26/80 2/6/80 15/27/80
