# Blender 3.1.0
# www.blender.org
o Icosphere.001
v -0.098080 -5.242331 -0.144183
v -8.730436 -3.144011 -3.361001
v 1.259702 -1.055958 -3.629304
v 9.618063 -2.829494 -0.309269
v 2.563918 -2.412912 4.209886
v -10.502601 -3.853377 3.425563
v -1.408173 1.400624 -3.432060
v 7.709024 2.482825 -3.431709
v 8.467118 2.341149 2.414432
v -2.760077 2.165300 4.209886
v -7.401871 1.742419 -0.241469
v -0.098080 4.994719 -0.144183
v 1.011121 -3.147203 -1.886538
v -4.194524 -4.477901 -1.725866
v -1.322830 -1.863511 -3.292372
v -10.270185 -3.833691 -0.529745
v -7.748555 -8.078094 0.450063
v 4.965423 -4.477887 -0.144183
v 4.574038 -1.976976 -1.886544
v 1.466591 -4.477901 2.415055
v 5.194203 -2.178804 1.259945
v -2.629869 -2.814807 3.996763
v -12.130036 -0.414429 -2.667583
v -12.702807 -0.514778 0.864899
v 0.336593 -0.099735 -3.933111
v -7.075470 -0.248021 -5.195468
v 15.854580 -0.403108 -2.982479
v 9.098867 -0.300887 -7.176966
v 11.418863 0.993473 2.867063
v 14.520010 -0.489515 1.869137
v -13.570466 0.729063 6.504411
v -0.934409 -0.415032 7.938577
v -6.726294 2.567188 -2.703430
v 2.161555 2.070110 -4.512766
v 9.128806 2.949157 -0.309269
v 3.564652 4.323479 4.160379
v -8.068946 2.949159 2.660363
v -1.109778 3.671528 -2.375206
v -5.161583 4.230276 -0.144183
v 3.998363 4.230289 -1.725866
v 5.852911 6.142949 1.755628
v -1.892889 5.260430 3.281098
vn 0.1512 -0.6781 -0.7192
vn -0.1613 -0.9351 -0.3155
vn 0.1007 -0.6671 -0.7381
vn 0.1463 -0.9688 0.2000
vn 0.3512 -0.9341 0.0643
vn -0.6059 -0.6318 -0.4834
vn -0.0226 -0.3225 -0.9463
vn 0.0530 -0.7978 -0.6006
vn 0.3811 -0.8844 0.2696
vn 0.0123 -0.5520 0.8338
vn -0.4182 -0.3034 -0.8562
vn -0.3028 -0.5415 -0.7843
vn 0.3952 -0.9139 0.0924
vn 0.3515 -0.6471 0.6765
vn -0.8328 -0.5535 -0.0061
vn -0.0307 0.4250 -0.9046
vn 0.0674 0.7666 -0.6386
vn 0.7567 0.5744 0.3121
vn -0.0988 0.3113 0.9452
vn -0.6693 0.6188 -0.4112
vn -0.1475 0.9771 -0.1531
vn -0.3550 0.9330 0.0582
vn -0.2178 0.3360 0.9163
vn -0.1410 0.9786 -0.1498
vn 0.0337 0.7813 0.6232
vn 0.4549 0.4463 0.7706
vn -0.0186 0.8804 -0.4738
vn 0.3449 0.7329 -0.5864
vn 0.3036 0.9125 -0.2743
vn -0.0312 0.8658 -0.4994
vn -0.0094 0.7933 -0.6087
vn -0.3346 0.4334 -0.8368
vn -0.1325 0.8777 -0.4605
vn -0.1427 0.8675 -0.4765
vn -0.7434 0.6686 0.0200
vn -0.4282 0.7953 -0.4292
vn -0.5118 0.8190 -0.2594
vn -0.0129 0.8738 0.4862
vn -0.2463 0.7363 0.6302
vn 0.3099 0.3952 0.8647
vn 0.4016 0.9110 0.0934
vn 0.4265 0.8552 0.2945
vn 0.4880 0.8599 0.1496
vn 0.3340 0.8981 -0.2860
vn 0.0533 0.8108 -0.5829
vn -0.3461 0.0407 -0.9373
vn -0.2873 -0.0142 -0.9577
vn 0.0418 0.6593 -0.7507
vn -0.3594 0.6431 -0.6762
vn -0.4761 0.8649 0.1591
vn 0.0105 0.8247 0.5655
vn -0.1374 -0.8187 0.5575
vn 0.0460 -0.8619 0.5050
vn 0.4202 0.9065 -0.0413
vn 0.0354 -0.5060 0.8618
vn 0.1020 -0.7839 0.6125
vn 0.3153 0.8139 -0.4880
vn 0.1152 -0.9711 -0.2092
vn -0.0715 -0.9316 -0.3563
vn 0.1405 0.4567 -0.8785
vn 0.1577 -0.4649 -0.8712
vn 0.1069 -0.5749 -0.8112
vn -0.3983 0.9165 -0.0385
vn -0.8264 -0.5429 -0.1494
vn -0.8156 -0.5764 -0.0508
vn 0.0154 -0.5690 0.8222
vn 0.0643 -0.5999 0.7975
vn 0.0205 -0.6621 0.7492
vn 0.5657 -0.6913 0.4495
vn 0.5169 -0.4831 0.7067
vn 0.2151 -0.5245 0.8238
vn 0.1644 -0.5464 -0.8212
vn 0.1785 -0.5435 -0.8202
vn 0.2104 -0.6405 -0.7386
vn -0.8531 -0.5190 -0.0527
vn -0.2162 -0.3398 -0.9153
vn 0.1747 -0.6299 -0.7568
vn 0.1025 -0.6440 -0.7581
vn 0.1325 -0.6125 -0.7793
vn 0.1106 -0.5974 -0.7943
vt 0.181819 0.000000
vt 0.909091 0.000000
vt 0.727273 0.000000
vt 0.545455 0.000000
vt 0.363637 0.000000
vt 0.272728 0.157461
vt 1.000000 0.157461
vt 0.090910 0.157461
vt 0.818182 0.157461
vt 0.636364 0.157461
vt 0.454546 0.157461
vt 0.181819 0.314921
vt 0.000000 0.314921
vt 0.909091 0.314921
vt 0.727273 0.314921
vt 0.545455 0.314921
vt 0.363637 0.314921
vt 0.454546 0.472382
vt 0.636364 0.472382
vt 0.818182 0.472382
vt 0.090910 0.472382
vt 0.272728 0.472382
vt 0.954545 0.078731
vt 0.136365 0.078731
vt 0.318182 0.078731
vt 0.227273 0.078731
vt 0.181819 0.157461
vt 0.363637 0.157461
vt 0.500000 0.078731
vt 0.409092 0.078731
vt 0.772727 0.078731
vt 0.863636 0.078731
vt 0.909091 0.157461
vt 0.590909 0.078731
vt 0.681818 0.078731
vt 0.727273 0.157461
vt 0.545455 0.157461
vt 0.318182 0.236191
vt 0.409092 0.236191
vt 0.136365 0.236191
vt 0.227273 0.236191
vt 0.863636 0.236191
vt 0.045455 0.236191
vt 0.954545 0.236191
vt 0.681818 0.236191
vt 0.772727 0.236191
vt 0.500000 0.236191
vt 0.590909 0.236191
vt 0.272728 0.314921
vt 0.090910 0.314921
vt 0.818182 0.314921
vt 0.636364 0.314921
vt 0.454546 0.314921
vt 0.136365 0.393651
vt 0.227273 0.393651
vt 0.409092 0.393651
vt 0.318182 0.393651
vt 0.863636 0.393651
vt 0.045455 0.393651
vt 0.681818 0.393651
vt 0.772727 0.393651
vt 0.500000 0.393651
vt 0.590909 0.393651
s 0
f 1/1/1 14/26/1 13/24/1
f 2/6/2 14/25/2 16/28/2
f 1/2/3 13/23/3 18/32/3
f 1/3/4 18/31/4 20/35/4
f 1/4/5 20/34/5 17/29/5
f 2/6/6 16/28/6 23/38/6
f 3/8/7 15/27/7 25/40/7
f 4/9/8 19/33/8 27/42/8
f 5/10/9 21/36/9 29/45/9
f 6/11/10 22/37/10 31/47/10
f 2/6/11 23/38/11 26/41/11
f 3/8/12 25/40/12 28/43/12
f 4/9/13 27/42/13 30/46/13
f 5/10/14 29/45/14 32/48/14
f 6/11/15 31/47/15 24/39/15
f 7/12/16 33/49/16 38/55/16
f 8/13/17 34/50/17 40/59/17
f 9/15/18 35/51/18 41/61/18
f 10/16/19 36/52/19 42/63/19
f 11/17/20 37/53/20 39/56/20
f 39/56/21 42/62/21 12/18/21
f 39/56/22 37/53/22 42/62/22
f 37/53/23 10/16/23 42/62/23
f 42/63/24 41/60/24 12/19/24
f 42/63/25 36/52/25 41/60/25
f 36/52/26 9/15/26 41/60/26
f 41/61/27 40/58/27 12/20/27
f 41/61/28 35/51/28 40/58/28
f 35/51/29 8/14/29 40/58/29
f 40/59/30 38/54/30 12/21/30
f 40/59/31 34/50/31 38/54/31
f 34/50/32 7/12/32 38/54/32
f 38/55/33 39/57/33 12/22/33
f 38/55/34 33/49/34 39/57/34
f 33/49/35 11/17/35 39/57/35
f 24/39/36 37/53/36 11/17/36
f 24/39/37 31/47/37 37/53/37
f 31/47/38 10/16/38 37/53/38
f 32/48/39 36/52/39 10/16/39
f 32/48/40 29/45/40 36/52/40
f 29/45/41 9/15/41 36/52/41
f 30/46/42 35/51/42 9/15/42
f 30/46/43 27/42/43 35/51/43
f 27/42/44 8/14/44 35/51/44
f 28/43/45 34/50/45 8/13/45
f 28/43/46 25/40/46 34/50/46
f 25/40/47 7/12/47 34/50/47
f 26/41/48 33/49/48 7/12/48
f 26/41/49 23/38/49 33/49/49
f 23/38/50 11/17/50 33/49/50
f 31/47/51 32/48/51 10/16/51
f 31/47/52 22/37/52 32/48/52
f 22/37/53 5/10/53 32/48/53
f 29/45/54 30/46/54 9/15/54
f 29/45/55 21/36/55 30/46/55
f 21/36/56 4/9/56 30/46/56
f 27/42/57 28/44/57 8/14/57
f 27/42/58 19/33/58 28/44/58
f 19/33/59 3/7/59 28/44/59
f 25/40/60 26/41/60 7/12/60
f 25/40/61 15/27/61 26/41/61
f 15/27/62 2/6/62 26/41/62
f 23/38/63 24/39/63 11/17/63
f 23/38/64 16/28/64 24/39/64
f 16/28/65 6/11/65 24/39/65
f 17/29/66 22/37/66 6/11/66
f 17/29/67 20/34/67 22/37/67
f 20/34/68 5/10/68 22/37/68
f 20/35/69 21/36/69 5/10/69
f 20/35/70 18/31/70 21/36/70
f 18/31/71 4/9/71 21/36/71
f 18/32/72 19/33/72 4/9/72
f 18/32/73 13/23/73 19/33/73
f 13/23/74 3/7/74 19/33/74
f 16/28/75 17/30/75 6/11/75
f 16/28/76 14/25/76 17/30/76
f 14/25/77 1/5/77 17/30/77
f 13/24/78 15/27/78 3/8/78
f 13/24/79 14/26/79 15/27/79
f 14/26/80 2/6/80 15/27/80
