# Blender 3.1.0
# www.blender.org
o Cube.008
v -0.701178 2.909251 0.806825
v -0.701178 2.909251 -0.549997
v -0.819070 2.732388 -0.664060
v -0.819070 2.922966 -0.664060
v -0.481418 2.771365 -0.711120
v -0.481418 2.883989 -0.711120
v -0.313879 2.982850 0.432102
v -0.313879 2.982850 -0.175273
v -0.321370 2.944899 0.729088
v -0.143860 2.978631 0.684932
v -0.321370 2.968633 0.747218
v -0.143860 3.002365 0.703062
v -0.701178 -0.096538 -0.407596
v -0.701178 -0.096538 0.407596
v -0.728644 0.078813 -0.266635
v -0.728644 -0.007789 -0.316635
v -0.728644 -0.007789 -0.416635
v -0.728644 0.078813 -0.466635
v -0.728644 0.165416 -0.416635
v -0.728644 0.165416 -0.316635
v -0.728644 -0.163304 -0.226849
v -0.728644 0.078813 -0.087062
v -0.728644 -0.163304 -0.506422
v -0.728644 0.078813 -0.646208
v -0.728644 0.320931 -0.506422
v -0.728644 0.320931 -0.226849
v -0.875917 -0.163304 -0.226849
v -0.875917 0.078813 -0.087062
v -0.875917 -0.163304 -0.506422
v -0.875917 0.078813 -0.646208
v -0.875917 0.320931 -0.506422
v -0.875917 0.320931 -0.226849
v 0.701178 2.909251 0.806825
v 0.701178 2.909251 -0.549997
v 0.819070 2.732388 -0.664060
v 0.819070 2.922966 -0.664060
v 0.481418 2.771365 -0.711120
v 0.481418 2.883989 -0.711120
v 0.313879 2.982850 0.432102
v 0.313879 2.982850 -0.175273
v 0.321370 2.944899 0.729088
v 0.143860 2.978631 0.684932
v 0.321370 2.968633 0.747218
v 0.143860 3.002365 0.703062
v 0.701178 -0.096538 -0.407596
v 0.701178 -0.096538 0.407596
v 0.728644 0.078813 -0.266635
v 0.728644 -0.007789 -0.316635
v 0.728644 -0.007789 -0.416635
v 0.728644 0.078813 -0.466635
v 0.728644 0.165416 -0.416635
v 0.728644 0.165416 -0.316635
v 0.728644 -0.163304 -0.226849
v 0.728644 0.078813 -0.087062
v 0.728644 -0.163304 -0.506422
v 0.728644 0.078813 -0.646208
v 0.728644 0.320931 -0.506422
v 0.728644 0.320931 -0.226849
v 0.875917 -0.163304 -0.226849
v 0.875917 0.078813 -0.087062
v 0.875917 -0.163304 -0.506422
v 0.875917 0.078813 -0.646208
v 0.875917 0.320931 -0.506422
v 0.875917 0.320931 -0.226849
v -0.701178 2.222771 0.620857
v -0.515211 2.212461 0.806825
v -0.701178 2.746103 0.620857
v -0.515211 2.746103 0.806825
v -0.515211 2.746103 -0.549997
v -0.701178 2.746103 -0.364029
v -0.819034 2.732392 -0.664025
v -0.701178 -0.096538 -0.407596
v -0.515211 0.045862 -0.549997
v -0.515211 0.044990 0.565739
v -0.701178 -0.096538 0.407596
v 0.701178 2.222771 0.620857
v 0.515211 2.212461 0.806825
v 0.515211 2.746103 0.806825
v 0.701178 2.746103 0.620857
v 0.701178 2.746103 -0.364029
v 0.515211 2.746103 -0.549997
v 0.819034 2.732392 -0.664025
v 0.515211 0.045862 -0.549997
v 0.701178 -0.096538 -0.407596
v 0.701178 -0.096538 0.407596
v 0.515211 0.044990 0.565739
v -0.735469 2.732390 0.920871
v -0.819053 2.732390 0.837288
v -0.788515 2.735943 0.843147
v -0.740870 2.735919 0.891525
v -0.819070 2.922966 0.837306
v -0.735487 2.922966 0.920888
v -0.759210 2.916003 0.862972
v 0.819053 2.732390 0.837288
v 0.735469 2.732390 0.920871
v 0.740870 2.735919 0.891525
v 0.788515 2.735943 0.843147
v 0.735487 2.922966 0.920888
v 0.819070 2.922966 0.837306
v 0.759210 2.916003 0.862972
vn -0.0000 0.9999 0.0167
vn -0.0000 0.9928 0.1194
vn -0.0000 1.0000 -0.0000
vn -0.1867 0.9824 -0.0000
vn 0.1156 0.9933 -0.0000
vn -0.0000 -0.0001 1.0000
vn -0.1380 -0.0000 -0.9904
vn -0.0000 0.5000 -0.8660
vn -0.0000 0.9928 -0.1194
vn -0.0000 -1.0000 -0.0000
vn -0.0000 0.7701 -0.6379
vn -0.0000 -0.5000 0.8660
vn 1.0000 -0.0000 -0.0000
vn -0.0959 0.9877 0.1238
vn -0.0000 -0.6071 0.7947
vn -0.2987 0.5793 -0.7584
vn -0.0000 0.7947 0.6071
vn -0.0000 0.9813 -0.1927
vn -0.1156 -0.9933 -0.0000
vn -0.0000 -0.1105 0.9939
vn -0.0000 -0.0000 -1.0000
vn -0.0000 -0.5000 -0.8660
vn -1.0000 -0.0000 -0.0000
vn -0.0000 0.6071 -0.7947
vn 0.0328 -0.9989 -0.0328
vn -0.0000 0.9090 0.4168
vn -0.0000 0.5000 0.8660
vn -0.0000 -0.7071 -0.7071
vn -0.0000 -0.7452 0.6669
vn -0.0000 -0.7701 -0.6379
vn 0.1867 0.9824 -0.0000
vn -0.1156 0.9933 -0.0000
vn 0.1380 -0.0000 -0.9904
vn 0.0959 0.9877 0.1238
vn 0.2987 0.5793 -0.7584
vn -0.0328 -0.9989 -0.0328
vn -0.0000 -0.9928 0.1194
vn -0.0000 -0.9928 -0.1194
vn 0.0328 -0.9989 0.0328
vn -0.0328 -0.9989 0.0328
vn -0.7071 -0.0000 0.7071
vn -0.6631 0.0059 -0.7485
vn -0.6627 -0.0754 0.7451
vn 0.7071 -0.0000 0.7071
vn 0.6631 0.0059 -0.7485
vn 0.6627 -0.0754 0.7451
vn -0.0000 -0.0000 1.0000
vn 0.1429 -0.9794 -0.1423
vn 0.1957 0.9609 -0.1957
vn -0.1429 -0.9794 -0.1423
vn -0.1957 0.9609 -0.1957
vn -0.7071 -0.0001 0.7071
vn 0.7071 -0.0001 0.7071
vn 0.1156 -0.9933 -0.0000
vt 0.450560 0.356233
vt 0.924542 0.393408
vt 0.450560 0.359584
vt 0.924542 0.396759
vt 0.032340 0.396759
vt 0.450560 0.359584
vt 0.032340 0.396759
vt 0.450560 0.359584
vt 0.032340 0.396759
vt 0.032340 0.396759
vt 0.924542 0.393408
vt 0.571379 0.904565
vt 0.924542 0.396759
vt 0.571379 0.907917
vt 0.046281 0.393408
vt 0.924542 0.393408
vt 0.924542 0.393408
vt 0.046281 0.393408
vt 0.046281 0.393408
vt 0.046281 0.393408
vt 0.447209 0.359150
vt 0.447209 0.356666
vt 0.455587 0.362935
vt 0.061137 0.409404
vt 0.442182 0.362935
vt 0.072308 0.409404
vt 0.453353 0.362935
vt 0.070074 0.409404
vt 0.451118 0.362935
vt 0.448884 0.362935
vt 0.067839 0.409404
vt 0.446650 0.362935
vt 0.065605 0.409404
vt 0.444416 0.362935
vt 0.063371 0.409404
vt 0.072308 0.409404
vt 0.061137 0.409404
vt 0.074542 0.409404
vt 0.070074 0.409404
vt 0.067839 0.409404
vt 0.065605 0.409404
vt 0.063371 0.409404
vt 0.067274 0.400959
vt 0.072308 0.409404
vt 0.061137 0.409404
vt 0.064488 0.402567
vt 0.074542 0.409404
vt 0.067274 0.397742
vt 0.070074 0.409404
vt 0.064488 0.396133
vt 0.067839 0.409404
vt 0.061702 0.397742
vt 0.065605 0.409404
vt 0.061702 0.400959
vt 0.063371 0.409404
vt 0.450560 0.356233
vt 0.924542 0.393408
vt 0.924542 0.396759
vt 0.450560 0.359584
vt 0.032340 0.396759
vt 0.450560 0.359584
vt 0.032340 0.396759
vt 0.450560 0.359584
vt 0.032340 0.396759
vt 0.032340 0.396759
vt 0.571379 0.904565
vt 0.924542 0.393408
vt 0.571379 0.907917
vt 0.924542 0.396759
vt 0.924542 0.393408
vt 0.046281 0.393408
vt 0.924542 0.393408
vt 0.046281 0.393408
vt 0.046281 0.393408
vt 0.046281 0.393408
vt 0.447209 0.359150
vt 0.447209 0.356666
vt 0.455587 0.362935
vt 0.442182 0.362935
vt 0.074542 0.409404
vt 0.453353 0.362935
vt 0.072308 0.409404
vt 0.451118 0.362935
vt 0.070074 0.409404
vt 0.448884 0.362935
vt 0.067839 0.409404
vt 0.446650 0.362935
vt 0.065605 0.409404
vt 0.444416 0.362935
vt 0.063371 0.409404
vt 0.072308 0.409404
vt 0.061137 0.409404
vt 0.074542 0.409404
vt 0.070074 0.409404
vt 0.067839 0.409404
vt 0.065605 0.409404
vt 0.063371 0.409404
vt 0.067274 0.400959
vt 0.072308 0.409404
vt 0.061137 0.409404
vt 0.064488 0.402567
vt 0.074542 0.409404
vt 0.067274 0.397742
vt 0.070074 0.409404
vt 0.064488 0.396133
vt 0.067839 0.409404
vt 0.061702 0.397742
vt 0.065605 0.409404
vt 0.061702 0.400959
vt 0.063371 0.409404
vt 0.450340 0.356670
vt 0.450560 0.356233
vt 0.687551 0.885978
vt 0.450560 0.356692
vt 0.450560 0.356233
vt 0.687551 0.885978
vt 0.450560 0.359584
vt 0.450560 0.359584
vt 0.450560 0.359125
vt 0.450560 0.359584
vt 0.447209 0.359150
vt 0.447209 0.359584
vt 0.447415 0.359584
vt 0.447209 0.356233
vt 0.447414 0.356233
vt 0.447209 0.356666
vt 0.450340 0.356670
vt 0.450560 0.356233
vt 0.687551 0.885978
vt 0.450560 0.356233
vt 0.687551 0.885978
vt 0.450560 0.356692
vt 0.450560 0.359125
vt 0.450560 0.359584
vt 0.450560 0.359584
vt 0.447209 0.359584
vt 0.447415 0.359584
vt 0.447209 0.359150
vt 0.447209 0.356666
vt 0.447209 0.356233
vt 0.447414 0.356233
vt 0.450560 0.356233
vt 0.450560 0.356233
vt 0.450560 0.356409
vt 0.450560 0.356352
vt 0.450560 0.356233
vt 0.450560 0.356409
vt 0.450560 0.356233
vt 0.450560 0.356233
vt 0.450560 0.356409
vt 0.450560 0.356233
vt 0.450560 0.356233
vt 0.450560 0.356352
vt 0.450560 0.356233
vt 0.450560 0.356233
vt 0.450560 0.356409
vt 0.450560 0.356233
s 0
f 10/17/1 42/72/1 39/67/1 7/11/1
f 34/59/2 36/63/2 4/8/2 2/3/2
f 20/34/3 52/89/3 51/87/3 19/32/3
f 2/4/4 1/2/4 7/11/4 8/13/4
f 1/1/5 2/3/5 4/8/5 91/147/5 93/149/5
f 95/151/6 98/154/6 92/148/6 87/142/6
f 3/5/7 4/7/7 6/10/7 5/9/7
f 19/32/8 51/87/8 50/85/8 18/30/8
f 93/149/9 92/148/9 98/154/9 100/157/9 33/56/9 1/1/9
f 13/21/10 45/76/10 46/77/10 14/22/10
f 36/62/11 38/65/11 6/10/11 4/7/11
f 16/27/12 48/81/12 47/78/12 15/23/12
f 18/31/13 17/28/13 16/26/13 15/24/13 20/35/13 26/42/13 22/38/13 21/36/13 23/39/13 24/40/13
f 7/11/14 1/2/14 9/16/14 10/17/14
f 41/71/15 43/74/15 11/19/15 9/15/15
f 10/18/16 9/15/16 11/19/16 12/20/16
f 43/74/17 44/75/17 12/20/17 11/19/17
f 80/133/13 79/132/13 76/127/13 85/139/13 46/77/13 45/76/13 84/138/13
f 17/29/10 49/83/10 48/81/10 16/27/10
f 8/13/18 40/69/18 34/58/18 2/4/18
f 80/133/19 82/135/19 35/61/19 94/150/19 97/153/19 79/132/19
f 74/125/20 86/141/20 77/128/20 66/112/20
f 6/10/21 38/65/21 37/64/21 5/9/21
f 18/30/22 50/85/22 49/83/22 17/29/22
f 39/66/3 40/68/3 8/14/3 7/12/3
f 3/6/23 88/144/23 91/147/23 4/8/23
f 12/20/24 44/75/24 42/73/24 10/18/24
f 67/114/25 68/115/25 90/146/25 89/145/25
f 33/57/26 41/70/26 9/16/26 1/2/26
f 15/25/27 47/79/27 52/89/27 20/34/27
f 72/121/28 73/122/28 83/136/28 84/138/28 45/76/28 13/21/28
f 83/137/21 73/123/21 69/117/21 81/134/21
f 22/37/27 26/42/27 32/55/27 28/45/27
f 46/77/29 85/139/29 86/140/29 74/124/29 75/126/29 14/22/29
f 27/43/23 28/46/23 32/54/23 31/52/23 30/50/23 29/48/23
f 25/41/8 24/40/8 30/51/8 31/53/8
f 23/39/10 21/36/10 27/44/10 29/49/10
f 26/42/3 25/41/3 31/53/3 32/55/3
f 24/40/22 23/39/22 29/49/22 30/51/22
f 21/36/12 22/38/12 28/47/12 27/44/12
f 19/33/13 18/31/13 24/40/13 25/41/13 26/42/13 20/35/13
f 5/9/30 37/64/30 35/60/30 3/5/30
f 34/58/31 40/69/31 39/67/31 33/57/31
f 33/56/32 100/157/32 99/156/32 36/63/32 34/59/32
f 35/60/33 37/64/33 38/65/33 36/62/33
f 39/67/34 42/72/34 41/70/34 33/57/34
f 42/73/35 44/75/35 43/74/35 41/71/35
f 54/92/23 58/97/23 57/96/23 51/88/23 52/90/23 47/80/23 48/82/23 49/84/23 50/86/23 56/95/23 55/94/23 53/91/23
f 54/92/27 60/100/27 64/110/27 58/97/27
f 65/111/23 67/114/23 70/119/23 72/121/23 13/21/23 14/22/23 75/126/23
f 78/130/36 79/132/36 97/153/36 96/152/36
f 51/88/23 57/96/23 56/95/23 50/86/23
f 59/98/13 61/103/13 62/105/13 63/107/13 64/109/13 60/101/13
f 57/96/8 63/108/8 62/106/8 56/95/8
f 55/94/10 61/104/10 59/99/10 53/91/10
f 58/97/3 64/110/3 63/108/3 57/96/3
f 56/95/22 62/106/22 61/104/22 55/94/22
f 53/91/12 59/99/12 60/102/12 54/93/12
f 3/6/37 35/61/37 82/135/37 81/134/37 69/117/37 71/120/37
f 78/130/38 96/152/38 95/151/38 87/142/38 90/146/38 68/115/38
f 69/117/39 70/118/39 71/120/39
f 35/61/13 36/63/13 99/156/13 94/150/13
f 80/133/40 81/134/40 82/135/40
f 67/114/41 65/111/41 66/112/41 68/115/41
f 72/121/42 70/119/42 69/117/42 73/123/42
f 65/111/43 75/126/43 74/125/43 66/112/43
f 78/130/44 77/128/44 76/127/44 79/132/44
f 83/137/45 81/134/45 80/133/45 84/138/45
f 77/128/46 86/141/46 85/139/46 76/127/46
f 77/129/47 78/131/47 68/116/47 66/113/47
f 87/142/48 88/143/48 89/145/48 90/146/48
f 91/147/49 92/148/49 93/149/49
f 94/150/50 95/151/50 96/152/50 97/153/50
f 98/154/51 99/155/51 100/157/51
f 87/142/52 92/148/52 91/147/52 88/144/52
f 94/150/53 99/156/53 98/154/53 95/151/53
f 71/120/54 70/119/54 67/114/54 89/145/54 88/144/54 3/6/54
