# Blender 3.1.0
# www.blender.org
o Cube.007
v 1.952997 -0.274549 -1.629100
v 1.952997 3.689977 -1.629100
v 1.952997 -0.274549 1.629100
v 1.952997 3.229455 1.629100
v -1.952997 -0.274549 -1.629100
v -1.952997 3.689977 -1.629100
v -1.952997 -0.274549 1.629100
v -1.952997 3.229455 1.629100
v 2.235451 -0.061560 1.277107
v 2.235451 -0.061560 -1.277107
v 2.235451 3.450722 -1.277107
v 2.235451 3.042734 1.277107
v -2.235451 3.042734 1.277107
v -2.235451 -0.061560 1.277107
v -2.235451 -0.061560 -1.277107
v -2.235451 3.450722 -1.277107
v 1.679658 3.657750 -1.401093
v 1.679658 3.261683 1.401093
v -1.679658 3.261683 1.401093
v -1.679658 3.657750 -1.401093
v 0.205561 3.233392 1.601248
v -0.205561 3.233392 1.601248
v 0.176791 3.257746 1.428946
v -0.176791 3.257746 1.428946
v 0.205561 3.370522 1.620630
v -0.205561 3.370522 1.620630
v 0.176791 3.394875 1.448328
v -0.176791 3.394875 1.448328
v 1.679658 3.657750 -1.401093
v 1.679658 3.261683 1.401093
v -1.679658 3.261683 1.401093
v -1.679658 3.657750 -1.401093
v 1.007795 3.261683 1.401093
v 0.335932 3.261683 1.401093
v -0.335932 3.261683 1.401093
v -1.007795 3.261683 1.401093
v -1.007795 3.657750 -1.401093
v -0.335932 3.657750 -1.401093
v 0.335932 3.657750 -1.401093
v 1.007795 3.657750 -1.401093
v 1.484194 3.310621 1.401093
v 1.203259 3.310622 1.401093
v 0.812331 3.310621 1.401093
v 0.531396 3.310622 1.401093
v 0.140468 3.310621 1.401093
v -0.140468 3.310622 1.401093
v -0.531396 3.310621 1.401093
v -0.812331 3.310622 1.401093
v -1.203259 3.310621 1.401093
v -1.484194 3.310622 1.401093
v -1.484194 3.706689 -1.401093
v -1.203259 3.706689 -1.401093
v -0.812331 3.706689 -1.401093
v -0.531396 3.706689 -1.401093
v -0.140468 3.706689 -1.401093
v 0.140468 3.706689 -1.401093
v 0.531396 3.706689 -1.401093
v 0.812331 3.706689 -1.401093
v 1.203259 3.706689 -1.401093
v 1.484194 3.706689 -1.401093
vn 0.7799 -0.0000 -0.6259
vn -0.0000 -0.0000 1.0000
vn 0.7799 -0.0000 0.6259
vn -0.0000 -0.0000 -1.0000
vn -0.0000 -1.0000 -0.0000
vn -0.0000 0.9902 0.1400
vn 1.0000 -0.0000 -0.0000
vn -1.0000 -0.0000 -0.0000
vn -0.5978 0.7928 0.1185
vn -0.7799 -0.0000 0.6259
vn 0.5978 0.7928 0.1185
vn 0.6021 -0.7984 -0.0000
vn -0.7799 -0.0000 -0.6259
vn -0.6021 -0.7984 -0.0000
vn 0.9866 0.0228 -0.1615
vn -0.0000 0.1400 -0.9902
vn -0.9866 0.0228 -0.1615
vn -0.0000 -0.1400 0.9902
vn 0.2406 0.9611 0.1358
vn -0.2406 0.9611 0.1358
vn -0.0000 1.0000 -0.0000
vt 0.709356 0.629130
vt 0.425896 0.387492
vt 0.426387 0.387983
vt 0.709847 0.629622
vt 0.708864 0.629130
vt 0.708373 0.629622
vt 0.424913 0.387983
vt 0.425404 0.387492
vt 0.425896 0.388966
vt 0.709356 0.630604
vt 0.426387 0.388475
vt 0.709847 0.630113
vt 0.708864 0.630604
vt 0.708373 0.630113
vt 0.424913 0.388475
vt 0.425404 0.388966
vt 0.425896 0.387983
vt 0.709356 0.629622
vt 0.708864 0.629622
vt 0.425404 0.387983
vt 0.425896 0.388475
vt 0.709356 0.630113
vt 0.708864 0.630113
vt 0.425404 0.388475
vt 0.709356 0.630604
vt 0.314370 0.333203
vt 0.709847 0.630113
vt 0.709356 0.629130
vt 0.314370 0.333695
vt 0.709847 0.629622
vt 0.708864 0.629130
vt 0.313879 0.333695
vt 0.708373 0.629622
vt 0.708864 0.630604
vt 0.313879 0.333203
vt 0.708373 0.630113
vt 0.313879 0.332712
vt 0.708864 0.630113
vt 0.314370 0.332712
vt 0.709356 0.630113
vt 0.314370 0.332221
vt 0.709356 0.629622
vt 0.313879 0.332221
vt 0.708864 0.629622
vt 0.425404 0.387492
vt 0.424913 0.387983
vt 0.076888 0.396786
vt 0.424913 0.388475
vt 0.076396 0.397768
vt 0.425404 0.388475
vt 0.076888 0.397768
vt 0.425404 0.387983
vt 0.076888 0.397277
vt 0.053162 0.397768
vt 0.424913 0.388475
vt 0.425404 0.388966
vt 0.053653 0.398260
vt 0.425404 0.388475
vt 0.053653 0.397768
vt 0.424913 0.388475
vt 0.053162 0.397768
vt 0.425404 0.388475
vt 0.053653 0.397768
vt 0.053162 0.397768
vt 0.053653 0.398260
vt 0.053653 0.397768
vt 0.053653 0.398260
vt 0.053162 0.397768
vt 0.053653 0.397768
vt 0.424913 0.387983
vt 0.076888 0.396786
vt 0.076396 0.397277
vt 0.424913 0.388475
vt 0.076396 0.397768
vt 0.425404 0.388475
vt 0.076888 0.397768
vt 0.425404 0.387983
vt 0.076888 0.397277
vt 0.076495 0.397768
vt 0.076593 0.397768
vt 0.076691 0.397768
vt 0.076789 0.397768
vt 0.076789 0.397277
vt 0.076888 0.397081
vt 0.076691 0.397277
vt 0.076888 0.396982
vt 0.076593 0.397277
vt 0.076495 0.397277
vt 0.076888 0.396884
vt 0.076425 0.397768
vt 0.076466 0.397768
vt 0.076523 0.397768
vt 0.076564 0.397768
vt 0.076621 0.397768
vt 0.076663 0.397768
vt 0.076720 0.397768
vt 0.076761 0.397768
vt 0.076818 0.397768
vt 0.076859 0.397768
vt 0.076859 0.397277
vt 0.076818 0.397277
vt 0.076888 0.397150
vt 0.076761 0.397277
vt 0.076888 0.397109
vt 0.076720 0.397277
vt 0.076888 0.397052
vt 0.076663 0.397277
vt 0.076888 0.397011
vt 0.076621 0.397277
vt 0.076888 0.396954
vt 0.076564 0.397277
vt 0.076888 0.396913
vt 0.076523 0.397277
vt 0.076888 0.396855
vt 0.076466 0.397277
vt 0.076888 0.396814
vt 0.076425 0.397277
s 0
f 1/1/1 2/5/1 11/31/1 10/28/1
f 3/9/2 4/16/2 8/24/2 7/21/2
f 4/13/3 3/10/3 9/25/3 12/34/3
f 5/17/4 6/20/4 2/8/4 1/2/4
f 3/11/5 7/21/5 5/17/5 1/3/5
f 6/20/6 8/24/6 19/50/6 20/52/6
f 10/29/7 11/32/7 12/35/7 9/26/7
f 14/39/8 13/37/8 16/43/8 15/41/8
f 8/23/9 6/19/9 16/44/9 13/38/9
f 7/22/10 8/23/10 13/38/10 14/40/10
f 2/6/11 4/14/11 12/36/11 11/33/11
f 3/12/12 1/4/12 10/30/12 9/27/12
f 6/19/13 5/18/13 15/42/13 16/44/13
f 5/18/14 7/22/14 14/40/14 15/42/14
f 4/15/6 2/7/6 17/46/6 18/48/6
f 2/8/6 6/20/6 20/52/6 17/45/6
f 19/50/6 8/24/6 22/58/6 24/62/6
f 21/54/15 23/61/15 27/68/15 25/64/15
f 4/15/6 18/48/6 23/60/6 21/55/6
f 18/48/6 19/50/6 24/62/6 23/60/6
f 8/24/6 4/16/6 21/56/6 22/58/6
f 26/66/6 25/65/6 27/67/6 28/69/6
f 23/61/16 24/63/16 28/69/16 27/68/16
f 24/63/17 22/59/17 26/66/17 28/69/17
f 22/59/18 21/57/18 25/65/18 26/66/18
f 43/92/19 33/79/19 40/88/19 58/113/19
f 33/79/20 42/91/20 59/115/20 40/88/20
f 20/52/21 19/50/21 31/75/21 32/77/21
f 18/48/21 17/46/21 29/70/21 30/73/21
f 49/98/19 36/82/19 37/83/19 52/101/19
f 17/47/4 20/53/4 32/78/4 51/100/4 52/101/4 37/83/4 53/102/4 54/104/4 38/84/4 55/106/4 56/108/4 39/86/4 57/110/4 58/112/4 40/89/4 59/114/4 60/116/4 29/71/4
f 31/76/20 50/99/20 51/100/20 32/78/20
f 36/82/20 48/97/20 53/103/20 37/83/20
f 47/96/19 35/81/19 38/85/19 54/105/19
f 35/81/20 46/95/20 55/107/20 38/85/20
f 45/94/19 34/80/19 39/87/19 56/109/19
f 34/80/20 44/93/20 57/111/20 39/87/20
f 41/90/19 30/74/19 29/72/19 60/117/19
f 49/98/6 52/101/6 51/100/6 50/99/6
f 47/96/6 54/105/6 53/103/6 48/97/6
f 45/94/6 56/109/6 55/107/6 46/95/6
f 43/92/6 58/113/6 57/111/6 44/93/6
f 41/90/6 60/117/6 59/115/6 42/91/6
f 19/51/2 18/49/2 30/74/2 41/90/2 42/91/2 33/79/2 43/92/2 44/93/2 34/80/2 45/94/2 46/95/2 35/81/2 47/96/2 48/97/2 36/82/2 49/98/2 50/99/2 31/76/2
