# Blender 3.1.0
# www.blender.org
o Cube.005
v 2.009840 0.271605 -0.481732
v 2.009840 3.796402 -0.481732
v 2.009840 0.271605 0.481732
v 2.009840 3.796402 0.481732
v -2.009840 0.271605 -0.481732
v -2.009840 3.796402 -0.481732
v -2.009840 0.271605 0.481732
v -2.009840 3.796402 0.481732
v 1.852003 3.657997 0.481732
v 1.852003 0.410010 0.481732
v -1.852003 0.410010 0.481732
v -1.852003 3.657997 0.481732
v 1.852003 2.846000 0.481732
v 1.852003 2.034003 0.481732
v 1.852003 1.222007 0.481732
v -0.926001 0.410010 0.481732
v 0.000000 0.410010 0.481732
v 0.926001 0.410010 0.481732
v 0.926001 3.657997 0.481732
v -0.000000 3.657997 0.481732
v -0.926001 3.657997 0.481732
v -1.852003 2.846000 0.481732
v -1.852003 2.034003 0.481732
v -1.852003 1.222007 0.481732
v 0.926001 1.222007 0.481732
v -0.000000 1.222007 0.481732
v -0.926001 1.222007 0.481732
v 0.926001 2.034003 0.481732
v -0.000000 2.034003 0.481732
v -0.926001 2.034003 0.481732
v 0.926001 2.846000 0.481732
v -0.000000 2.846000 0.481732
v -0.926001 2.846000 0.481732
v -1.296402 3.211399 0.481732
v -1.296402 3.292598 0.481732
v -1.481602 3.292598 0.481732
v -1.481602 3.211399 0.481732
v -1.296402 0.775408 0.481732
v -1.296402 0.856608 0.481732
v -1.481602 0.856608 0.481732
v -1.481602 0.775408 0.481732
v -1.296402 1.587405 0.481732
v -1.296402 1.668605 0.481732
v -1.481602 1.668605 0.481732
v -1.481602 1.587405 0.481732
v -1.296402 2.399402 0.481732
v -1.296402 2.480602 0.481732
v -1.481602 2.480602 0.481732
v -1.481602 2.399402 0.481732
v 1.481602 0.775408 0.481732
v 1.481602 0.856608 0.481732
v 1.296402 0.856608 0.481732
v 1.296402 0.775408 0.481732
v 0.555601 0.775408 0.481732
v 0.555601 0.856608 0.481732
v 0.370401 0.856608 0.481732
v 0.370401 0.775408 0.481732
v -0.370401 0.775408 0.481732
v -0.370401 0.856608 0.481732
v -0.555601 0.856608 0.481732
v -0.555601 0.775408 0.481732
v 1.481602 1.587405 0.481732
v 1.481602 1.668605 0.481732
v 1.296402 1.668605 0.481732
v 1.296402 1.587405 0.481732
v 0.555601 1.587405 0.481732
v 0.555601 1.668605 0.481732
v 0.370401 1.668605 0.481732
v 0.370401 1.587405 0.481732
v -0.370401 1.587405 0.481732
v -0.370401 1.668605 0.481732
v -0.555601 1.668605 0.481732
v -0.555601 1.587405 0.481732
v 1.481602 2.399402 0.481732
v 1.481602 2.480602 0.481732
v 1.296402 2.480602 0.481732
v 1.296402 2.399402 0.481732
v 0.555601 2.399402 0.481732
v 0.555601 2.480602 0.481732
v 0.370401 2.480602 0.481732
v 0.370401 2.399402 0.481732
v -0.370401 2.399402 0.481732
v -0.370401 2.480602 0.481732
v -0.555601 2.480602 0.481732
v -0.555601 2.399402 0.481732
v 1.481602 3.211399 0.481732
v 1.481602 3.292598 0.481732
v 1.296402 3.292598 0.481732
v 1.296402 3.211399 0.481732
v 0.555601 3.211399 0.481732
v 0.555601 3.292598 0.481732
v 0.370401 3.292598 0.481732
v 0.370401 3.211399 0.481732
v -0.370401 3.211399 0.481732
v -0.370401 3.292598 0.481732
v -0.555601 3.292598 0.481732
v -0.555601 3.211399 0.481732
v -1.296402 3.292598 0.555409
v -1.296402 3.211399 0.555409
v -1.481602 3.292598 0.555409
v -1.481602 3.211399 0.555409
v -1.296402 0.856608 0.555409
v -1.296402 0.775408 0.555409
v -1.481602 0.856608 0.555409
v -1.481602 0.775408 0.555409
v -1.296402 1.668605 0.555409
v -1.296402 1.587405 0.555409
v -1.481602 1.668605 0.555409
v -1.481602 1.587405 0.555409
v -1.296402 2.480602 0.555409
v -1.296402 2.399402 0.555409
v -1.481602 2.480602 0.555409
v -1.481602 2.399402 0.555409
v 1.481602 0.856608 0.555409
v 1.481602 0.775408 0.555409
v 1.296402 0.856608 0.555409
v 1.296402 0.775408 0.555409
v 0.555601 0.856608 0.555409
v 0.555601 0.775408 0.555409
v 0.370401 0.856608 0.555409
v 0.370401 0.775408 0.555409
v -0.370401 0.856608 0.555409
v -0.370401 0.775408 0.555409
v -0.555601 0.856608 0.555409
v -0.555601 0.775408 0.555409
v 1.481602 1.668605 0.555409
v 1.481602 1.587405 0.555409
v 1.296402 1.668605 0.555409
v 1.296402 1.587405 0.555409
v 0.555601 1.668605 0.555409
v 0.555601 1.587405 0.555409
v 0.370401 1.668605 0.555409
v 0.370401 1.587405 0.555409
v -0.370401 1.668605 0.555409
v -0.370401 1.587405 0.555409
v -0.555601 1.668605 0.555409
v -0.555601 1.587405 0.555409
v 1.481602 2.480602 0.555409
v 1.481602 2.399402 0.555409
v 1.296402 2.480602 0.555409
v 1.296402 2.399402 0.555409
v 0.555601 2.480602 0.555409
v 0.555601 2.399402 0.555409
v 0.370401 2.480602 0.555409
v 0.370401 2.399402 0.555409
v -0.370401 2.480602 0.555409
v -0.370401 2.399402 0.555409
v -0.555601 2.480602 0.555409
v -0.555601 2.399402 0.555409
v 1.481602 3.292598 0.555409
v 1.481602 3.211399 0.555409
v 1.296402 3.292598 0.555409
v 1.296402 3.211399 0.555409
v 0.555601 3.292598 0.555409
v 0.555601 3.211399 0.555409
v 0.370401 3.292598 0.555409
v 0.370401 3.211399 0.555409
v -0.370401 3.292598 0.555409
v -0.370401 3.211399 0.555409
v -0.555601 3.292598 0.555409
v -0.555601 3.211399 0.555409
v 1.759755 3.877091 -0.263407
v 1.759755 3.877091 0.263407
v -1.759755 3.877091 0.263407
v -1.759755 3.877091 -0.263407
v 1.234790 4.420743 -0.263407
v 1.234790 4.420743 0.263407
v -1.234790 4.420743 0.263407
v -1.234790 4.420743 -0.263407
v 1.358289 4.056969 0.263407
v -1.358289 4.056969 0.263407
v 0.953088 4.240865 0.263407
v -0.953088 4.240865 0.263407
v 2.219904 -0.267727 0.532082
v 2.219904 -0.267727 -0.532082
v -2.219904 -0.267727 0.532082
v -2.219904 -0.267727 -0.532082
v 2.219904 -0.618397 0.532082
v 2.219904 -0.618397 -0.532082
v -2.219904 -0.618397 0.532082
v -2.219904 -0.618397 -0.532082
vn 1.0000 -0.0000 -0.0000
vn -0.0000 -0.0000 1.0000
vn -1.0000 -0.0000 -0.0000
vn -0.0000 -0.0000 -1.0000
vn -0.0000 0.0930 0.9957
vn 0.3071 0.9517 -0.0000
vn -0.0000 1.0000 -0.0000
vn -0.0000 -1.0000 -0.0000
vn -0.0000 0.9380 -0.3467
vn -0.0000 0.9380 0.3467
vn -0.3071 0.9517 -0.0000
vn -0.7194 0.6946 -0.0000
vn 0.7194 0.6946 -0.0000
vn 0.9318 0.3629 -0.0000
vn -0.9318 0.3629 -0.0000
vn -0.0000 0.0930 -0.9957
vt 0.690707 0.881784
vt 0.690707 0.880305
vt 0.063377 0.630852
vt 0.063377 0.629373
vt 0.690337 0.881784
vt 0.690337 0.880305
vt 0.690707 0.881415
vt 0.063747 0.630113
vt 0.691077 0.881045
vt 0.063377 0.630483
vt 0.690337 0.881415
vt 0.689968 0.881045
vt 0.690707 0.880675
vt 0.063377 0.629743
vt 0.690337 0.880675
vt 0.690707 0.881045
vt 0.063377 0.630113
vt 0.690337 0.881045
vt 0.690337 0.881415
vt 0.689968 0.881045
vt 0.825097 0.676951
vt 0.063008 0.890708
vt 0.690707 0.881415
vt 0.691077 0.881045
vt 0.825467 0.676951
vt 0.081965 0.704833
vt 0.690707 0.881045
vt 0.825467 0.676582
vt 0.081965 0.704463
vt 0.690337 0.881045
vt 0.063008 0.890339
vt 0.825097 0.676582
vt 0.690430 0.881415
vt 0.063100 0.890708
vt 0.825190 0.676951
vt 0.081688 0.704833
vt 0.690522 0.881415
vt 0.063193 0.890708
vt 0.825282 0.676951
vt 0.081780 0.704833
vt 0.690615 0.881415
vt 0.063285 0.890708
vt 0.825374 0.676951
vt 0.081873 0.704833
vt 0.690800 0.881045
vt 0.825467 0.676674
vt 0.081965 0.704556
vt 0.690892 0.881045
vt 0.825467 0.676767
vt 0.081965 0.704648
vt 0.690985 0.881045
vt 0.825467 0.676859
vt 0.081965 0.704740
vt 0.690060 0.881045
vt 0.825097 0.676859
vt 0.063008 0.890616
vt 0.690153 0.881045
vt 0.825097 0.676767
vt 0.063008 0.890523
vt 0.690245 0.881045
vt 0.063008 0.890431
vt 0.825097 0.676674
vt 0.690430 0.881045
vt 0.081688 0.704463
vt 0.063100 0.890339
vt 0.825190 0.676582
vt 0.690522 0.881045
vt 0.063193 0.890339
vt 0.825282 0.676582
vt 0.081780 0.704463
vt 0.690615 0.881045
vt 0.063285 0.890339
vt 0.825374 0.676582
vt 0.081873 0.704463
vt 0.063285 0.890616
vt 0.825374 0.676859
vt 0.081873 0.704740
vt 0.063285 0.890523
vt 0.825374 0.676767
vt 0.081873 0.704648
vt 0.063285 0.890431
vt 0.825374 0.676674
vt 0.081873 0.704556
vt 0.063193 0.890616
vt 0.825282 0.676859
vt 0.081780 0.704740
vt 0.063193 0.890523
vt 0.825282 0.676767
vt 0.081780 0.704648
vt 0.063193 0.890431
vt 0.825282 0.676674
vt 0.081780 0.704556
vt 0.063100 0.890616
vt 0.825190 0.676859
vt 0.081688 0.704740
vt 0.063100 0.890523
vt 0.825190 0.676767
vt 0.081688 0.704648
vt 0.063100 0.890431
vt 0.825190 0.676674
vt 0.081688 0.704556
vt 0.825190 0.676674
vt 0.081688 0.704556
vt 0.040058 0.616138
vt 0.825097 0.676674
vt 0.063008 0.890431
vt 0.040063 0.616138
vt 0.063008 0.890339
vt 0.825097 0.676582
vt 0.040063 0.616142
vt 0.825190 0.676582
vt 0.081688 0.704463
vt 0.040058 0.616142
vt 0.825467 0.676674
vt 0.081965 0.704556
vt 0.040045 0.616138
vt 0.825374 0.676674
vt 0.063285 0.890431
vt 0.040050 0.616138
vt 0.063285 0.890339
vt 0.825374 0.676582
vt 0.040050 0.616142
vt 0.825467 0.676582
vt 0.081965 0.704463
vt 0.040045 0.616142
vt 0.825374 0.676674
vt 0.081873 0.704556
vt 0.040050 0.616138
vt 0.825282 0.676674
vt 0.063193 0.890431
vt 0.040054 0.616138
vt 0.063193 0.890339
vt 0.825282 0.676582
vt 0.040054 0.616142
vt 0.825374 0.676582
vt 0.081873 0.704463
vt 0.040050 0.616142
vt 0.825282 0.676674
vt 0.081780 0.704556
vt 0.040054 0.616138
vt 0.825190 0.676674
vt 0.063100 0.890431
vt 0.040058 0.616138
vt 0.063100 0.890339
vt 0.825190 0.676582
vt 0.040058 0.616142
vt 0.825282 0.676582
vt 0.081780 0.704463
vt 0.040054 0.616142
vt 0.825467 0.676951
vt 0.081965 0.704833
vt 0.040045 0.616124
vt 0.825374 0.676951
vt 0.063285 0.890708
vt 0.040050 0.616124
vt 0.063285 0.890616
vt 0.825374 0.676859
vt 0.040050 0.616129
vt 0.825467 0.676859
vt 0.081965 0.704740
vt 0.040045 0.616129
vt 0.825467 0.676859
vt 0.081965 0.704740
vt 0.040045 0.616129
vt 0.040050 0.616129
vt 0.825374 0.676859
vt 0.063285 0.890616
vt 0.063285 0.890523
vt 0.825374 0.676767
vt 0.040050 0.616133
vt 0.825467 0.676767
vt 0.081965 0.704648
vt 0.040045 0.616133
vt 0.825467 0.676767
vt 0.081965 0.704648
vt 0.040045 0.616133
vt 0.825374 0.676767
vt 0.063285 0.890523
vt 0.040050 0.616133
vt 0.063285 0.890431
vt 0.825374 0.676674
vt 0.040050 0.616138
vt 0.825467 0.676674
vt 0.081965 0.704556
vt 0.040045 0.616138
vt 0.825374 0.676951
vt 0.081873 0.704833
vt 0.040050 0.616124
vt 0.825282 0.676951
vt 0.063193 0.890708
vt 0.040054 0.616124
vt 0.063193 0.890616
vt 0.825282 0.676859
vt 0.040054 0.616129
vt 0.825374 0.676859
vt 0.081873 0.704740
vt 0.040050 0.616129
vt 0.040050 0.616129
vt 0.825374 0.676859
vt 0.081873 0.704740
vt 0.040054 0.616129
vt 0.825282 0.676859
vt 0.063193 0.890616
vt 0.040054 0.616133
vt 0.063193 0.890523
vt 0.825282 0.676767
vt 0.040050 0.616133
vt 0.825374 0.676767
vt 0.081873 0.704648
vt 0.825374 0.676767
vt 0.081873 0.704648
vt 0.040050 0.616133
vt 0.825282 0.676767
vt 0.063193 0.890523
vt 0.040054 0.616133
vt 0.063193 0.890431
vt 0.825282 0.676674
vt 0.040054 0.616138
vt 0.825374 0.676674
vt 0.081873 0.704556
vt 0.040050 0.616138
vt 0.825282 0.676951
vt 0.081780 0.704833
vt 0.040054 0.616124
vt 0.825190 0.676951
vt 0.063100 0.890708
vt 0.040058 0.616124
vt 0.063100 0.890616
vt 0.825190 0.676859
vt 0.040058 0.616129
vt 0.825282 0.676859
vt 0.081780 0.704740
vt 0.040054 0.616129
vt 0.825282 0.676859
vt 0.081780 0.704740
vt 0.040054 0.616129
vt 0.825190 0.676859
vt 0.063100 0.890616
vt 0.040058 0.616129
vt 0.040058 0.616133
vt 0.063100 0.890523
vt 0.825190 0.676767
vt 0.040054 0.616133
vt 0.825282 0.676767
vt 0.081780 0.704648
vt 0.825282 0.676767
vt 0.081780 0.704648
vt 0.040054 0.616133
vt 0.825190 0.676767
vt 0.063100 0.890523
vt 0.040058 0.616133
vt 0.063100 0.890431
vt 0.825190 0.676674
vt 0.040058 0.616138
vt 0.825282 0.676674
vt 0.081780 0.704556
vt 0.040054 0.616138
vt 0.825190 0.676951
vt 0.081688 0.704833
vt 0.040058 0.616124
vt 0.825097 0.676951
vt 0.063008 0.890708
vt 0.040063 0.616124
vt 0.063008 0.890616
vt 0.825097 0.676859
vt 0.040063 0.616129
vt 0.825190 0.676859
vt 0.081688 0.704740
vt 0.040058 0.616129
vt 0.825190 0.676859
vt 0.081688 0.704740
vt 0.040058 0.616129
vt 0.825097 0.676859
vt 0.063008 0.890616
vt 0.040063 0.616129
vt 0.063008 0.890523
vt 0.825097 0.676767
vt 0.040063 0.616133
vt 0.040058 0.616133
vt 0.825190 0.676767
vt 0.081688 0.704648
vt 0.825190 0.676767
vt 0.081688 0.704648
vt 0.040058 0.616133
vt 0.825097 0.676767
vt 0.063008 0.890523
vt 0.040063 0.616133
vt 0.063008 0.890431
vt 0.825097 0.676674
vt 0.040063 0.616138
vt 0.825190 0.676674
vt 0.081688 0.704556
vt 0.040058 0.616138
vt 0.202512 0.124015
vt 0.040063 0.616138
vt 0.202508 0.124015
vt 0.040058 0.616138
vt 0.202512 0.124020
vt 0.040063 0.616142
vt 0.202508 0.124020
vt 0.040058 0.616142
vt 0.425549 0.179778
vt 0.040050 0.616138
vt 0.425545 0.179778
vt 0.040045 0.616138
vt 0.040050 0.616142
vt 0.425549 0.179782
vt 0.040045 0.616142
vt 0.425545 0.179782
vt 0.425554 0.179778
vt 0.040054 0.616138
vt 0.425549 0.179778
vt 0.040050 0.616138
vt 0.425554 0.179782
vt 0.040054 0.616142
vt 0.425549 0.179782
vt 0.040050 0.616142
vt 0.202508 0.124015
vt 0.040058 0.616138
vt 0.202503 0.124015
vt 0.040054 0.616138
vt 0.202508 0.124020
vt 0.040058 0.616142
vt 0.202503 0.124020
vt 0.040054 0.616142
vt 0.425549 0.179765
vt 0.040050 0.616124
vt 0.425545 0.179765
vt 0.040045 0.616124
vt 0.425549 0.179769
vt 0.040050 0.616129
vt 0.425545 0.179769
vt 0.040045 0.616129
vt 0.040050 0.616129
vt 0.425549 0.179769
vt 0.425545 0.179769
vt 0.040045 0.616129
vt 0.425549 0.179773
vt 0.040050 0.616133
vt 0.425545 0.179773
vt 0.040045 0.616133
vt 0.425549 0.179773
vt 0.040050 0.616133
vt 0.425545 0.179773
vt 0.040045 0.616133
vt 0.425549 0.179778
vt 0.040050 0.616138
vt 0.425545 0.179778
vt 0.040045 0.616138
vt 0.425554 0.179765
vt 0.040054 0.616124
vt 0.425549 0.179765
vt 0.040050 0.616124
vt 0.425554 0.179769
vt 0.040054 0.616129
vt 0.425549 0.179769
vt 0.040050 0.616129
vt 0.040054 0.616129
vt 0.202503 0.124006
vt 0.040050 0.616129
vt 0.202499 0.124006
vt 0.040054 0.616133
vt 0.202503 0.124011
vt 0.040050 0.616133
vt 0.202499 0.124011
vt 0.425554 0.179773
vt 0.040054 0.616133
vt 0.425549 0.179773
vt 0.040050 0.616133
vt 0.425554 0.179778
vt 0.040054 0.616138
vt 0.425549 0.179778
vt 0.040050 0.616138
vt 0.202508 0.124002
vt 0.040058 0.616124
vt 0.202503 0.124002
vt 0.040054 0.616124
vt 0.202508 0.124006
vt 0.040058 0.616129
vt 0.202503 0.124006
vt 0.040054 0.616129
vt 0.040058 0.616129
vt 0.425558 0.179769
vt 0.040054 0.616129
vt 0.425554 0.179769
vt 0.040058 0.616133
vt 0.425558 0.179773
vt 0.040054 0.616133
vt 0.425554 0.179773
vt 0.425558 0.179773
vt 0.040058 0.616133
vt 0.425554 0.179773
vt 0.040054 0.616133
vt 0.425558 0.179778
vt 0.040058 0.616138
vt 0.425554 0.179778
vt 0.040054 0.616138
vt 0.425563 0.179765
vt 0.040063 0.616124
vt 0.425558 0.179765
vt 0.040058 0.616124
vt 0.425563 0.179769
vt 0.040063 0.616129
vt 0.425558 0.179769
vt 0.040058 0.616129
vt 0.202512 0.124006
vt 0.040063 0.616129
vt 0.202508 0.124006
vt 0.040058 0.616129
vt 0.202512 0.124011
vt 0.040063 0.616133
vt 0.040058 0.616133
vt 0.202508 0.124011
vt 0.425563 0.179773
vt 0.040063 0.616133
vt 0.425558 0.179773
vt 0.040058 0.616133
vt 0.425563 0.179778
vt 0.040063 0.616138
vt 0.425558 0.179778
vt 0.040058 0.616138
vt 0.690337 0.880305
vt 0.690337 0.881784
vt 0.689968 0.881045
vt 0.690337 0.881415
vt 0.690337 0.881045
vt 0.690337 0.880675
vt 0.690337 0.880305
vt 0.689968 0.880675
vt 0.690337 0.881784
vt 0.689968 0.881045
vt 0.690337 0.881415
vt 0.690337 0.881045
vt 0.690337 0.880675
vt 0.689968 0.881045
vt 0.415801 0.648700
vt 0.690337 0.881415
vt 0.416171 0.648700
vt 0.690337 0.881045
vt 0.415801 0.648700
vt 0.689968 0.881045
vt 0.690337 0.881415
vt 0.416171 0.648700
vt 0.690337 0.881045
vt 0.063377 0.630483
vt 0.063747 0.630113
vt 0.063377 0.630852
vt 0.063377 0.629373
vt 0.063377 0.630113
vt 0.063377 0.629743
vt 0.063377 0.630483
vt 0.063747 0.630113
vt 0.063747 0.629743
vt 0.063377 0.630852
vt 0.063377 0.629373
vt 0.063377 0.630113
vt 0.063377 0.629743
s 0
f 1/1/1 2/5/1 4/11/1 3/7/1
f 3/7/2 4/11/2 9/19/2 13/33/2 14/37/2 15/41/2 10/23/2
f 7/16/3 8/18/3 6/15/3 5/13/3
f 5/13/4 6/15/4 2/6/4 1/2/4
f 3/8/5 7/17/5 176/449/5 174/446/5
f 4/11/6 2/5/6 162/423/6 163/425/6
f 8/18/2 7/16/2 11/27/2 24/71/2 23/67/2 22/63/2 12/30/2
f 7/16/2 3/9/2 10/24/2 18/51/2 17/48/2 16/45/2 11/27/2
f 4/12/2 8/18/2 12/30/2 21/60/2 20/57/2 19/54/2 9/20/2
f 94/284/1 95/287/1 158/415/1 159/417/1
f 21/62/2 35/105/2 34/102/2 33/100/2
f 12/31/2 36/108/2 35/106/2 21/61/2
f 22/66/2 37/111/2 36/109/2 12/32/2
f 33/101/2 34/103/2 37/112/2 22/64/2
f 55/165/7 56/170/7 120/339/7 118/334/7
f 27/82/2 39/117/2 38/114/2 16/46/2
f 24/72/2 40/120/2 39/118/2 27/81/2
f 11/28/2 41/123/2 40/121/2 24/73/2
f 16/47/2 38/115/2 41/124/2 11/29/2
f 69/207/8 66/198/8 131/360/8 133/364/8
f 30/91/2 43/129/2 42/126/2 27/82/2
f 23/68/2 44/132/2 43/130/2 30/90/2
f 24/73/2 45/135/2 44/133/2 23/69/2
f 27/83/2 42/127/2 45/136/2 24/74/2
f 54/164/1 55/165/1 118/334/1 119/337/1
f 33/100/2 47/141/2 46/138/2 30/91/2
f 22/65/2 48/144/2 47/142/2 33/99/2
f 23/69/2 49/147/2 48/145/2 22/66/2
f 30/92/2 46/139/2 49/148/2 23/70/2
f 68/204/3 69/207/3 133/364/3 132/362/3
f 15/43/2 51/153/2 50/150/2 10/25/2
f 25/75/2 52/156/2 51/154/2 15/42/2
f 18/52/2 53/159/2 52/157/2 25/76/2
f 10/26/2 50/151/2 53/160/2 18/53/2
f 67/201/7 68/204/7 132/362/7 130/358/7
f 25/76/2 55/166/2 54/162/2 18/52/2
f 26/78/2 56/168/2 55/167/2 25/75/2
f 17/49/2 57/171/2 56/169/2 26/79/2
f 18/53/2 54/163/2 57/172/2 17/50/2
f 81/243/8 78/236/8 143/384/8 145/388/8
f 26/79/2 59/177/2 58/174/2 17/49/2
f 27/81/2 60/180/2 59/178/2 26/78/2
f 16/46/2 61/183/2 60/181/2 27/82/2
f 17/50/2 58/175/2 61/184/2 16/47/2
f 66/198/1 67/201/1 130/358/1 131/360/1
f 14/39/2 63/189/2 62/186/2 15/43/2
f 28/84/2 64/192/2 63/190/2 14/38/2
f 25/76/2 65/195/2 64/193/2 28/85/2
f 15/44/2 62/187/2 65/196/2 25/77/2
f 80/240/3 81/243/3 145/388/3 144/386/3
f 28/85/2 67/202/2 66/199/2 25/76/2
f 29/87/2 68/205/2 67/203/2 28/84/2
f 26/79/2 69/208/2 68/206/2 29/88/2
f 25/77/2 66/200/2 69/209/2 26/80/2
f 41/125/8 38/116/8 103/305/8 105/308/8
f 29/88/2 71/213/2 70/210/2 26/79/2
f 30/90/2 72/216/2 71/214/2 29/87/2
f 27/82/2 73/219/2 72/217/2 30/91/2
f 26/80/2 70/211/2 73/220/2 27/83/2
f 79/239/7 80/240/7 144/386/7 142/382/7
f 13/35/2 75/225/2 74/222/2 14/39/2
f 31/93/2 76/228/2 75/226/2 13/34/2
f 28/85/2 77/231/2 76/229/2 31/94/2
f 14/40/2 74/223/2 77/232/2 28/86/2
f 93/279/8 90/272/8 155/409/8 157/412/8
f 31/94/2 79/237/2 78/234/2 28/85/2
f 32/96/2 80/241/2 79/238/2 31/93/2
f 29/88/2 81/244/2 80/242/2 32/97/2
f 28/86/2 78/235/2 81/245/2 29/89/2
f 40/122/3 41/125/3 105/308/3 104/306/3
f 32/97/2 83/249/2 82/246/2 29/88/2
f 33/99/2 84/252/2 83/250/2 32/96/2
f 30/91/2 85/255/2 84/253/2 33/100/2
f 29/89/2 82/247/2 85/256/2 30/92/2
f 78/236/1 79/239/1 142/382/1 143/384/1
f 9/21/2 87/261/2 86/258/2 13/35/2
f 19/56/2 88/264/2 87/262/2 9/22/2
f 31/94/2 89/267/2 88/265/2 19/55/2
f 13/36/2 86/259/2 89/268/2 31/95/2
f 92/278/3 93/279/3 157/412/3 156/411/3
f 19/55/2 91/273/2 90/270/2 31/94/2
f 20/59/2 92/276/2 91/274/2 19/56/2
f 32/97/2 93/280/2 92/277/2 20/58/2
f 31/95/2 90/271/2 93/281/2 32/98/2
f 39/119/7 40/122/7 104/306/7 102/303/7
f 20/58/2 95/285/2 94/282/2 32/97/2
f 21/61/2 96/288/2 95/286/2 20/59/2
f 33/100/2 97/291/2 96/289/2 21/62/2
f 32/98/2 94/283/2 97/292/2 33/101/2
f 99/296/2 98/294/2 100/298/2 101/300/2
f 103/304/2 102/302/2 104/307/2 105/309/2
f 107/312/2 106/310/2 108/314/2 109/316/2
f 111/320/2 110/318/2 112/322/2 113/324/2
f 115/328/2 114/326/2 116/330/2 117/332/2
f 119/336/2 118/335/2 120/338/2 121/340/2
f 123/344/2 122/342/2 124/346/2 125/348/2
f 127/352/2 126/350/2 128/354/2 129/356/2
f 131/361/2 130/359/2 132/363/2 133/365/2
f 135/368/2 134/366/2 136/370/2 137/372/2
f 139/376/2 138/374/2 140/378/2 141/380/2
f 143/385/2 142/383/2 144/387/2 145/389/2
f 147/392/2 146/390/2 148/394/2 149/396/2
f 151/400/2 150/398/2 152/402/2 153/404/2
f 155/408/2 154/406/2 156/410/2 157/413/2
f 159/416/2 158/414/2 160/418/2 161/420/2
f 56/170/3 57/173/3 121/341/3 120/339/3
f 42/128/1 43/131/1 106/311/1 107/313/1
f 95/287/7 96/290/7 160/419/7 158/415/7
f 57/173/8 54/164/8 119/337/8 121/341/8
f 43/131/7 44/134/7 108/315/7 106/311/7
f 96/290/3 97/293/3 161/421/3 160/419/3
f 82/248/1 83/251/1 146/391/1 147/393/1
f 44/134/3 45/137/3 109/317/3 108/315/3
f 97/293/8 94/284/8 159/417/8 161/421/8
f 83/251/7 84/254/7 148/395/7 146/391/7
f 45/137/8 42/128/8 107/313/8 109/317/8
f 84/254/3 85/257/3 149/397/3 148/395/3
f 70/212/1 71/215/1 134/367/1 135/369/1
f 85/257/8 82/248/8 147/393/8 149/397/8
f 71/215/7 72/218/7 136/371/7 134/367/7
f 72/218/3 73/221/3 137/373/3 136/371/3
f 58/176/1 59/179/1 122/343/1 123/345/1
f 73/221/8 70/212/8 135/369/8 137/373/8
f 59/179/7 60/182/7 124/347/7 122/343/7
f 60/182/3 61/185/3 125/349/3 124/347/3
f 46/140/1 47/143/1 110/319/1 111/321/1
f 61/185/8 58/176/8 123/345/8 125/349/8
f 47/143/7 48/146/7 112/323/7 110/319/7
f 86/260/1 87/263/1 150/399/1 151/401/1
f 48/146/3 49/149/3 113/325/3 112/323/3
f 34/104/1 35/107/1 98/295/1 99/297/1
f 87/263/7 88/266/7 152/403/7 150/399/7
f 49/149/8 46/140/8 111/321/8 113/325/8
f 35/107/7 36/110/7 100/299/7 98/295/7
f 88/266/3 89/269/3 153/405/3 152/403/3
f 74/224/1 75/227/1 138/375/1 139/377/1
f 36/110/3 37/113/3 101/301/3 100/299/3
f 89/269/8 86/260/8 151/401/8 153/405/8
f 75/227/7 76/230/7 140/379/7 138/375/7
f 37/113/8 34/104/8 99/297/8 101/301/8
f 76/230/3 77/233/3 141/381/3 140/379/3
f 62/188/1 63/191/1 126/351/1 127/353/1
f 77/233/8 74/224/8 139/377/8 141/381/8
f 63/191/7 64/194/7 128/355/7 126/351/7
f 64/194/3 65/197/3 129/357/3 128/355/3
f 50/152/1 51/155/1 114/327/1 115/329/1
f 65/197/8 62/188/8 127/353/8 129/357/8
f 51/155/7 52/158/7 116/331/7 114/327/7
f 90/272/1 91/275/1 154/407/1 155/409/1
f 52/158/3 53/161/3 117/333/3 116/331/3
f 38/116/1 39/119/1 102/303/1 103/305/1
f 91/275/7 92/278/7 156/411/7 154/407/7
f 53/161/8 50/152/8 115/329/8 117/333/8
f 162/422/4 165/427/4 169/434/4 166/428/4
f 2/6/9 6/15/9 165/427/9 162/422/9
f 8/18/10 4/12/10 163/424/10 164/426/10
f 6/15/11 8/18/11 164/426/11 165/427/11
f 168/433/7 167/431/7 166/429/7 169/434/7
f 164/426/2 163/424/2 170/435/2 171/439/2
f 165/427/12 164/426/12 168/433/12 169/434/12
f 163/425/13 162/423/13 166/430/13 167/432/13
f 171/438/2 170/436/2 172/440/2 173/443/2
f 168/433/2 164/426/2 171/439/2 173/444/2
f 167/431/2 168/433/2 173/444/2 172/441/2
f 163/425/2 167/432/2 172/442/2 170/437/2
f 176/449/3 177/450/3 181/457/3 180/456/3
f 1/3/14 3/10/14 174/445/14 175/447/14
f 7/17/15 5/14/15 177/450/15 176/449/15
f 5/14/16 1/4/16 175/448/16 177/450/16
f 178/452/8 180/456/8 181/457/8 179/453/8
f 175/447/1 174/445/1 178/451/1 179/454/1
f 177/450/4 175/448/4 179/455/4 181/457/4
f 174/446/2 176/449/2 180/456/2 178/452/2
