# Blender 3.1.0
# www.blender.org
o Cube.006
v 0.400000 1.944758 0.621406
v -0.400000 1.944758 0.621406
v 0.059262 1.944758 0.186366
v 0.059262 1.944758 0.035040
v -0.059262 1.944758 0.186366
v -0.059262 1.944758 0.035040
v 0.059262 -1.033390 0.186366
v 0.059262 -1.033390 0.035040
v -0.059262 -1.033390 0.186366
v -0.059262 -1.033390 0.035040
v 0.180512 2.744758 -0.513399
v 0.400000 2.525270 -0.513399
v 0.400000 2.525270 0.621406
v 0.180512 2.744758 0.621406
v -0.400000 2.525270 -0.513399
v -0.180512 2.744758 -0.513399
v -0.180512 2.744758 0.621406
v -0.400000 2.525270 0.621406
v 0.355305 1.944758 -0.441460
v 0.400000 2.016697 -0.666795
v 0.400000 1.944758 -0.441460
v -0.400000 2.016697 -0.666795
v -0.355305 1.944758 -0.441460
v -0.400000 1.944758 -0.441460
v 0.126476 2.153029 -0.625675
v -0.126476 2.153029 -0.625675
v -0.126476 2.063423 -0.652701
v 0.126476 2.063423 -0.652701
v 0.126476 2.163341 -0.659864
v -0.126476 2.163341 -0.659864
v -0.126476 2.073735 -0.686890
v 0.126476 2.073735 -0.686890
v -0.356587 1.994702 0.621406
v 0.356587 1.994702 0.621406
v 0.160920 2.707876 0.621406
v 0.356587 2.512209 0.621406
v -0.356587 2.512209 0.621406
v -0.160920 2.707876 0.621406
v 0.152883 2.744758 -0.426554
v 0.152883 2.744758 0.534561
v -0.152883 2.744758 0.534561
v -0.152883 2.744758 -0.426554
v 0.152883 2.783757 -0.426554
v 0.152883 2.874755 0.534561
v -0.152883 2.874755 0.534561
v -0.152883 2.783757 -0.426554
v -0.125086 2.756576 0.534561
v 0.125086 2.756576 0.534561
v -0.125086 2.862937 0.534561
v 0.125086 2.862937 0.534561
v -0.316401 2.324822 0.621406
v -0.258756 2.324822 0.621406
v -0.274572 2.464087 0.621406
v -0.258756 2.425878 0.621406
v -0.316401 2.425878 0.621406
v -0.300585 2.464087 0.621406
v -0.316401 2.324822 0.635921
v -0.258756 2.324822 0.635921
v -0.274572 2.464087 0.635921
v -0.258756 2.425878 0.635921
v -0.316401 2.425878 0.635921
v -0.300585 2.464087 0.635921
vn -0.0000 1.0000 -0.0000
vn -0.0000 -1.0000 -0.0000
vn -1.0000 -0.0000 -0.0000
vn -0.0000 -0.0000 1.0000
vn 1.0000 -0.0000 -0.0000
vn -0.0000 0.2888 -0.9574
vn -0.0000 -0.0000 -1.0000
vn 0.7071 0.7071 -0.0000
vn -0.7071 0.7071 -0.0000
vn -0.0000 -0.9526 -0.3041
vn -0.0000 0.9574 0.2888
vn -0.0000 -0.9574 -0.2888
vn -0.0000 0.9955 -0.0943
vn -0.9240 0.3825 -0.0000
vn 0.9240 0.3825 -0.0000
vt 0.205631 0.900051
vt 0.205631 0.899632
vt 0.052284 0.658413
vt 0.205631 0.900051
vt 0.052284 0.658832
vt 0.052284 0.657156
vt 0.205631 0.898794
vt 0.205631 0.900470
vt 0.205631 0.899632
vt 0.052284 0.657994
vt 0.052284 0.657575
vt 0.205631 0.899213
vt 0.052703 0.657994
vt 0.052284 0.658413
vt 0.052703 0.657575
vt 0.052284 0.658832
vt 0.052284 0.657156
vt 0.052284 0.657994
vt 0.052284 0.657575
vt 0.205212 0.900470
vt 0.204908 0.899213
vt 0.205327 0.900470
vt 0.089155 0.630951
vt 0.205327 0.900051
vt 0.205212 0.900051
vt 0.204908 0.899632
vt 0.205327 0.899213
vt 0.089155 0.629694
vt 0.205097 0.899213
vt 0.205097 0.899632
vt 0.205327 0.899632
vt 0.205631 0.898794
vt 0.205631 0.900470
vt 0.089421 0.630951
vt 0.205631 0.900470
vt 0.205631 0.898794
vt 0.089459 0.629275
vt 0.205631 0.900444
vt 0.205631 0.899213
vt 0.089421 0.629694
vt 0.205631 0.899213
vt 0.205631 0.899240
vt 0.089155 0.630951
vt 0.051980 0.352138
vt 0.089155 0.629694
vt 0.051980 0.350881
vt 0.089421 0.629694
vt 0.052284 0.350881
vt 0.089421 0.630951
vt 0.089459 0.629275
vt 0.052246 0.352138
vt 0.052284 0.350462
vt 0.051980 0.352138
vt 0.051980 0.350881
vt 0.052284 0.350881
vt 0.052246 0.352138
vt 0.052284 0.350462
vt 0.205631 0.899632
vt 0.070872 0.620819
vt 0.205631 0.900051
vt 0.070872 0.621238
vt 0.205212 0.900051
vt 0.204908 0.899632
vt 0.070453 0.621238
vt 0.070149 0.620819
vt 0.205327 0.900051
vt 0.070568 0.621238
vt 0.205327 0.899632
vt 0.070568 0.620819
vt 0.205097 0.899632
vt 0.070338 0.620819
vt 0.330374 0.648282
vt 0.205212 0.900470
vt 0.204908 0.899213
vt 0.330678 0.649538
vt 0.205212 0.900051
vt 0.204908 0.899632
vt 0.297846 0.648700
vt 0.330678 0.649119
vt 0.205097 0.899632
vt 0.330563 0.648700
vt 0.298035 0.648700
vt 0.205097 0.899213
vt 0.330563 0.648282
vt 0.330374 0.648282
vt 0.330678 0.649538
vt 0.330374 0.648700
vt 0.330678 0.649119
vt 0.330563 0.648700
vt 0.330563 0.648282
vt 0.330563 0.648700
vt 0.451382 0.137543
vt 0.298035 0.648700
vt 0.451193 0.137543
vt 0.297846 0.648700
vt 0.330678 0.649119
vt 0.451382 0.137543
vt 0.330563 0.648700
vt 0.451193 0.137543
vt 0.330374 0.648700
vt 0.330678 0.649119
vt 0.070872 0.620819
vt 0.080165 0.397768
vt 0.070872 0.621238
vt 0.080165 0.398187
vt 0.070453 0.621238
vt 0.070149 0.620819
vt 0.079746 0.398187
vt 0.079442 0.397768
vt 0.070568 0.621238
vt 0.079861 0.398187
vt 0.070568 0.620819
vt 0.079861 0.397768
vt 0.070338 0.620819
vt 0.079631 0.397768
vt 0.080165 0.397768
vt 0.080165 0.398187
vt 0.079746 0.398072
vt 0.079746 0.398187
vt 0.079442 0.397768
vt 0.079861 0.398187
vt 0.079861 0.397768
vt 0.079746 0.397883
vt 0.079631 0.397768
s 0
f 16/29/1 17/30/1 41/80/1 42/83/1
f 2/2/2 24/42/2 23/41/2 6/12/2 5/9/2
f 2/2/3 18/31/3 15/27/3 22/39/3 24/42/3
f 17/30/4 18/31/4 37/68/4 38/70/4
f 5/10/3 6/11/3 10/19/3 9/18/3
f 21/38/5 20/35/5 12/22/5 13/24/5 1/1/5
f 1/1/2 2/2/2 5/9/2 3/4/2
f 12/23/6 20/34/6 28/49/6 25/43/6
f 7/13/2 9/18/2 10/19/2 8/15/2
f 4/5/5 3/3/5 7/14/5 8/16/5
f 6/11/7 4/6/7 8/17/7 10/19/7
f 3/3/4 5/10/4 9/18/4 7/14/4
f 11/20/8 14/25/8 13/24/8 12/22/8
f 17/30/9 16/29/9 15/27/9 18/31/9
f 12/22/7 15/27/7 16/29/7 11/21/7
f 23/41/2 19/32/2 4/7/2 6/12/2
f 19/33/10 20/35/10 21/38/10
f 22/39/10 23/41/10 24/42/10
f 19/32/10 23/41/10 22/39/10 20/36/10
f 19/33/2 21/38/2 1/1/2 3/4/2 4/8/2
f 27/48/3 26/46/3 30/54/3 31/55/3
f 20/37/6 22/40/6 27/47/6 28/50/6
f 15/28/6 12/23/6 25/43/6 26/45/6
f 22/40/6 15/28/6 26/45/6 27/47/6
f 31/55/6 30/54/6 29/53/6 32/56/6
f 26/46/11 25/44/11 29/53/11 30/54/11
f 25/44/5 28/51/5 32/56/5 29/53/5
f 28/52/12 27/48/12 31/55/12 32/57/12
f 37/69/4 33/59/4 51/102/4 55/112/4
f 13/24/4 14/25/4 35/62/4 36/66/4
f 18/31/4 2/2/4 33/58/4 37/68/4
f 1/1/4 13/24/4 36/66/4 34/60/4
f 2/2/4 1/1/4 34/60/4 33/58/4
f 14/26/4 17/30/4 38/70/4 35/63/4
f 39/72/7 42/84/7 46/90/7 43/85/7
f 14/25/1 11/20/1 39/73/1 40/76/1
f 17/30/1 14/26/1 40/77/1 41/80/1
f 11/21/1 16/29/1 42/83/1 39/74/1
f 45/89/13 44/87/13 43/85/13 46/90/13
f 40/79/5 39/75/5 43/86/5 44/88/5
f 45/89/4 41/81/4 47/91/4 49/98/4
f 42/84/3 41/81/3 45/89/3 46/90/3
f 47/92/4 48/94/4 50/99/4 49/97/4
f 44/87/4 45/89/4 49/98/4 50/100/4
f 41/82/4 40/78/4 48/95/4 47/93/4
f 40/79/4 44/88/4 50/101/4 48/96/4
f 56/115/14 55/113/14 61/122/14 62/124/14
f 34/61/4 36/67/4 54/110/4 52/104/4
f 36/67/4 35/64/4 53/106/4 54/110/4
f 35/65/4 38/71/4 56/114/4 53/107/4
f 38/71/4 37/69/4 55/112/4 56/114/4
f 33/59/4 34/61/4 52/104/4 51/102/4
f 58/117/4 60/121/4 59/118/4 62/123/4 61/122/4 57/116/4
f 51/103/2 52/105/2 58/117/2 57/116/2
f 55/113/3 51/103/3 57/116/3 61/122/3
f 52/105/5 54/111/5 60/121/5 58/117/5
f 54/111/15 53/108/15 59/119/15 60/121/15
f 53/109/1 56/115/1 62/124/1 59/120/1
